<svg id="svg" version="1.1" xmlns="http://www.w3.org/2000/svg" xmlns:xlink="http://www.w3.org/1999/xlink" width="400" height="397.08029197080293" viewBox="0, 0, 400,397.08029197080293"><g id="svgg"><path id="path0" d="M194.240 6.356 C 194.240 6.574,193.213 6.755,191.956 6.758 C 187.000 6.769,172.535 8.189,171.797 8.737 C 171.579 8.899,170.596 9.136,169.613 9.262 C 164.994 9.856,161.854 10.422,161.671 10.695 C 161.560 10.860,159.906 11.319,157.994 11.716 C 156.082 12.113,154.518 12.609,154.518 12.818 C 154.518 13.027,153.982 13.120,153.327 13.024 C 152.671 12.927,152.135 12.977,152.135 13.133 C 152.135 13.289,151.465 13.537,150.645 13.684 C 149.024 13.974,146.494 14.772,146.177 15.092 C 145.803 15.470,141.900 16.683,141.059 16.683 C 140.597 16.683,140.218 16.834,140.218 17.018 C 140.218 17.203,138.878 17.779,137.239 18.298 C 135.601 18.818,134.260 19.354,134.260 19.489 C 134.260 19.624,133.143 20.070,131.778 20.479 C 130.412 20.888,129.059 21.453,128.770 21.734 C 128.481 22.014,128.101 22.244,127.925 22.244 C 127.749 22.244,126.912 22.546,126.066 22.914 C 125.220 23.282,124.394 23.550,124.230 23.510 C 124.067 23.469,123.932 23.575,123.932 23.746 C 123.932 23.916,123.039 24.402,121.946 24.826 C 120.854 25.250,119.960 25.715,119.960 25.858 C 119.960 26.002,118.888 26.521,117.577 27.011 C 116.266 27.501,115.194 28.031,115.194 28.187 C 115.194 28.344,114.470 28.711,113.585 29.003 C 112.701 29.295,111.852 29.741,111.699 29.993 C 111.545 30.245,110.884 30.721,110.228 31.050 C 107.620 32.359,104.259 34.269,104.071 34.549 C 103.962 34.711,103.264 35.157,102.520 35.538 C 101.776 35.919,100.804 36.570,100.360 36.984 C 99.916 37.397,99.340 37.736,99.080 37.736 C 98.820 37.736,98.382 38.008,98.105 38.341 C 97.829 38.674,97.524 38.868,97.428 38.772 C 97.331 38.675,96.941 38.894,96.561 39.259 C 95.224 40.538,93.536 41.776,92.651 42.128 C 92.160 42.323,91.758 42.670,91.758 42.900 C 91.758 43.129,91.356 43.490,90.864 43.703 C 89.454 44.313,88.473 45.012,87.673 45.978 C 87.266 46.470,86.699 46.872,86.412 46.872 C 86.125 46.872,85.598 47.319,85.240 47.865 C 84.882 48.411,84.422 48.858,84.217 48.858 C 84.012 48.858,83.016 49.662,82.005 50.645 C 80.993 51.629,80.094 52.433,80.006 52.433 C 79.919 52.433,78.556 53.684,76.977 55.214 C 75.398 56.743,73.878 57.994,73.598 57.994 C 73.318 57.994,73.088 58.154,73.088 58.350 C 73.088 58.773,67.575 64.350,67.156 64.350 C 66.997 64.350,66.616 64.841,66.309 65.442 C 66.002 66.043,64.274 67.981,62.469 69.750 C 60.663 71.518,59.186 73.100,59.186 73.265 C 59.186 73.429,58.694 74.074,58.093 74.696 C 56.604 76.240,55.802 77.213,55.465 77.885 C 54.856 79.103,54.187 80.090,53.426 80.894 C 52.297 82.086,51.444 83.251,49.540 86.197 C 48.622 87.617,47.691 88.910,47.471 89.070 C 47.251 89.231,47.205 89.365,47.368 89.368 C 47.532 89.372,47.309 89.777,46.872 90.268 C 45.356 91.973,45.080 92.377,44.290 94.044 C 43.853 94.966,43.365 95.723,43.206 95.725 C 43.046 95.728,42.551 96.445,42.105 97.319 C 41.659 98.193,41.120 98.908,40.906 98.908 C 40.692 98.908,40.516 99.166,40.516 99.482 C 40.516 99.799,40.097 100.826,39.585 101.766 C 39.073 102.707,38.313 104.101,37.897 104.866 C 37.481 105.631,37.024 106.310,36.883 106.375 C 36.742 106.440,36.229 107.557,35.743 108.858 C 35.256 110.158,34.719 111.221,34.550 111.221 C 34.380 111.221,33.919 112.115,33.526 113.208 C 33.134 114.300,32.669 115.194,32.494 115.194 C 32.318 115.194,32.175 115.541,32.175 115.965 C 32.175 116.389,32.018 116.833,31.826 116.951 C 31.635 117.069,31.270 117.994,31.015 119.006 C 30.760 120.018,30.314 121.084,30.023 121.374 C 29.733 121.665,29.254 122.717,28.961 123.712 C 28.667 124.707,28.276 125.521,28.092 125.521 C 27.909 125.521,27.874 125.708,28.015 125.936 C 28.156 126.164,28.102 126.566,27.895 126.830 C 27.689 127.093,27.192 128.203,26.792 129.295 C 26.392 130.387,25.848 131.639,25.583 132.075 C 25.318 132.512,24.978 133.633,24.828 134.566 C 24.678 135.499,24.323 136.494,24.040 136.778 C 23.598 137.219,22.641 140.849,21.953 144.687 C 21.845 145.288,21.633 145.780,21.481 145.780 C 21.329 145.780,20.878 147.388,20.479 149.355 C 20.079 151.321,19.598 152.929,19.410 152.929 C 19.221 152.929,19.102 153.064,19.144 153.227 C 19.290 153.784,17.756 163.057,17.485 163.257 C 15.199 164.946,15.145 221.610,17.428 223.233 C 17.728 223.446,19.077 231.529,19.070 233.069 C 19.068 233.560,19.213 233.962,19.391 233.962 C 19.569 233.962,20.035 235.660,20.426 237.736 C 20.817 239.811,21.258 241.509,21.407 241.509 C 21.555 241.509,22.003 243.163,22.401 245.184 C 22.800 247.205,23.337 249.037,23.595 249.255 C 23.853 249.474,24.371 251.082,24.745 252.830 C 25.120 254.578,25.604 256.068,25.821 256.140 C 26.039 256.213,26.216 256.562,26.216 256.915 C 26.216 258.009,27.565 262.165,27.920 262.165 C 28.105 262.165,28.143 262.522,28.004 262.959 C 27.865 263.396,27.926 263.754,28.139 263.754 C 28.352 263.754,28.835 264.737,29.213 265.938 C 29.591 267.140,30.040 268.123,30.211 268.123 C 30.381 268.123,30.908 269.285,31.380 270.705 C 31.853 272.125,32.404 273.287,32.604 273.287 C 32.805 273.287,32.969 273.531,32.969 273.829 C 32.969 274.127,33.321 274.819,33.751 275.365 C 34.180 275.911,34.419 276.472,34.280 276.610 C 34.142 276.749,34.237 276.862,34.492 276.862 C 34.747 276.862,34.955 277.066,34.955 277.315 C 34.955 277.922,36.616 281.296,37.239 281.955 C 37.512 282.244,37.736 282.701,37.736 282.972 C 37.736 283.243,38.055 283.811,38.444 284.235 C 38.833 284.658,39.485 285.720,39.892 286.594 C 40.298 287.468,40.873 288.326,41.169 288.500 C 41.466 288.675,41.708 289.050,41.708 289.335 C 41.708 289.619,42.244 290.591,42.900 291.496 C 43.555 292.401,44.091 293.321,44.091 293.542 C 44.091 293.762,44.404 294.260,44.786 294.647 C 45.169 295.035,45.839 296.063,46.276 296.931 C 46.713 297.800,47.294 298.653,47.567 298.828 C 47.840 299.003,48.064 299.379,48.064 299.664 C 48.064 299.949,48.510 300.664,49.057 301.253 C 49.603 301.843,50.050 302.417,50.050 302.530 C 50.050 302.642,50.518 303.348,51.090 304.098 C 51.662 304.848,52.019 305.462,51.884 305.462 C 51.749 305.462,51.951 305.808,52.334 306.231 C 52.716 306.654,53.331 307.414,53.701 307.919 C 54.071 308.425,55.188 309.863,56.184 311.117 C 57.179 312.370,57.994 313.576,57.994 313.798 C 57.994 314.019,58.163 314.201,58.369 314.201 C 58.575 314.201,59.053 314.724,59.431 315.364 C 59.809 316.004,60.444 316.612,60.841 316.717 C 61.239 316.821,61.691 317.235,61.846 317.639 C 62.064 318.208,66.456 322.894,70.724 327.110 C 70.945 327.329,73.062 329.429,75.429 331.778 C 77.795 334.126,79.935 336.048,80.184 336.048 C 80.432 336.048,80.636 336.211,80.636 336.411 C 80.636 336.610,81.842 337.726,83.317 338.890 C 84.791 340.055,86.345 341.321,86.768 341.705 C 87.192 342.089,87.677 342.403,87.847 342.403 C 88.016 342.403,88.742 342.936,89.460 343.588 C 91.343 345.299,91.832 345.690,93.144 346.542 C 93.790 346.962,94.502 347.452,94.727 347.632 C 94.951 347.811,95.911 348.586,96.860 349.352 C 97.809 350.118,98.803 350.745,99.069 350.745 C 99.335 350.745,99.899 351.067,100.322 351.460 C 100.746 351.853,101.713 352.523,102.471 352.949 C 103.229 353.375,104.201 354.037,104.631 354.419 C 105.061 354.801,105.614 355.114,105.859 355.114 C 106.104 355.114,106.652 355.427,107.075 355.809 C 107.499 356.192,108.560 356.862,109.434 357.299 C 110.308 357.736,111.112 358.195,111.221 358.319 C 111.331 358.444,112.314 358.971,113.406 359.490 C 114.499 360.010,115.614 360.654,115.885 360.921 C 116.156 361.187,117.050 361.621,117.871 361.884 C 118.693 362.147,119.722 362.674,120.159 363.055 C 120.596 363.437,121.466 363.870,122.094 364.019 C 122.721 364.168,123.481 364.536,123.782 364.838 C 124.084 365.139,125.269 365.663,126.415 366.002 C 127.562 366.341,129.380 367.068,130.455 367.619 C 131.529 368.169,132.647 368.620,132.937 368.620 C 133.228 368.620,133.466 368.778,133.466 368.971 C 133.466 369.165,134.837 369.696,136.514 370.151 C 138.190 370.607,139.665 371.135,139.791 371.323 C 139.917 371.512,141.718 372.099,143.793 372.626 C 145.869 373.153,147.622 373.706,147.690 373.855 C 147.758 374.003,149.188 374.442,150.868 374.831 C 152.548 375.220,154.012 375.655,154.121 375.797 C 154.324 376.063,158.303 376.906,160.973 377.250 C 161.792 377.356,162.463 377.623,162.463 377.844 C 162.463 378.065,162.904 378.161,163.444 378.058 C 163.983 377.955,164.355 377.983,164.270 378.121 C 164.185 378.259,166.469 378.700,169.347 379.102 C 172.224 379.504,174.667 379.961,174.777 380.117 C 175.018 380.462,182.184 381.250,188.231 381.596 C 190.662 381.735,192.651 382.001,192.651 382.186 C 192.651 382.371,197.299 382.522,202.979 382.522 C 209.599 382.522,213.307 382.380,213.307 382.125 C 213.307 381.907,214.245 381.730,215.392 381.732 C 218.877 381.738,231.769 380.453,231.910 380.086 C 231.983 379.897,232.340 379.745,232.704 379.748 C 234.080 379.762,244.494 377.983,244.608 377.715 C 244.674 377.561,246.462 377.114,248.580 376.721 C 250.699 376.329,252.522 375.895,252.632 375.758 C 252.741 375.621,254.382 375.172,256.278 374.761 C 258.174 374.350,259.646 373.886,259.550 373.730 C 259.453 373.573,260.404 373.222,261.663 372.949 C 262.922 372.676,264.846 372.053,265.938 371.564 C 267.031 371.075,269.131 370.354,270.606 369.962 C 272.080 369.569,273.287 369.123,273.287 368.971 C 273.287 368.818,274.270 368.384,275.472 368.006 C 276.673 367.628,277.656 367.182,277.656 367.013 C 277.656 366.845,278.657 366.393,279.879 366.008 C 281.101 365.624,282.314 365.116,282.574 364.879 C 282.834 364.642,284.649 363.644,286.608 362.661 C 288.566 361.678,290.258 360.781,290.367 360.667 C 290.477 360.554,292.350 359.571,294.530 358.483 C 296.709 357.395,298.676 356.367,298.899 356.200 C 300.410 355.065,302.340 353.845,303.873 353.056 C 304.856 352.549,305.894 351.822,306.179 351.440 C 306.465 351.058,307.036 350.745,307.448 350.745 C 307.860 350.745,308.431 350.424,308.716 350.032 C 309.002 349.639,309.906 349.005,310.725 348.623 C 311.544 348.240,312.214 347.761,312.214 347.559 C 312.214 347.356,312.795 346.893,313.505 346.530 C 314.215 346.167,314.939 345.627,315.114 345.329 C 315.289 345.030,315.646 344.784,315.909 344.780 C 316.171 344.777,317.190 344.050,318.173 343.166 C 319.156 342.282,320.631 341.099,321.450 340.538 C 322.269 339.976,322.939 339.356,322.939 339.160 C 322.939 338.964,323.252 338.693,323.635 338.559 C 324.017 338.425,325.179 337.443,326.216 336.377 C 327.254 335.312,328.103 334.555,328.103 334.696 C 328.103 334.837,328.818 334.215,329.692 333.315 C 330.565 332.415,331.426 331.678,331.603 331.678 C 331.991 331.678,337.637 326.161,337.637 325.782 C 337.637 325.637,338.754 324.335,340.119 322.888 C 344.920 317.803,346.361 316.187,346.093 316.187 C 345.944 316.187,346.483 315.582,347.291 314.842 C 348.098 314.103,348.759 313.385,348.759 313.248 C 348.759 312.688,352.283 308.719,352.559 308.967 C 352.723 309.115,352.751 308.937,352.621 308.573 C 352.482 308.186,352.621 307.820,352.955 307.692 C 353.268 307.571,353.525 307.203,353.525 306.874 C 353.525 306.544,353.972 305.982,354.518 305.624 C 355.065 305.266,355.511 304.759,355.511 304.498 C 355.511 304.237,355.824 303.666,356.207 303.231 C 357.097 302.217,357.795 301.130,358.287 299.990 C 358.502 299.493,358.948 298.982,359.279 298.855 C 359.610 298.728,359.881 298.375,359.881 298.071 C 359.881 297.766,360.229 297.169,360.654 296.744 C 361.079 296.319,361.724 295.397,362.087 294.696 C 362.449 293.995,363.057 293.087,363.438 292.678 C 363.818 292.270,364.364 291.225,364.651 290.357 C 364.937 289.489,365.325 288.779,365.512 288.779 C 365.699 288.779,366.150 288.153,366.515 287.388 C 366.880 286.624,367.343 285.998,367.544 285.998 C 367.745 285.998,367.804 285.721,367.674 285.382 C 367.538 285.028,367.605 284.869,367.830 285.008 C 368.046 285.141,368.222 285.044,368.222 284.791 C 368.222 284.153,371.488 277.488,371.880 277.325 C 372.056 277.251,372.086 277.008,371.948 276.784 C 371.809 276.559,371.868 276.262,372.080 276.122 C 372.541 275.818,375.372 270.054,375.372 269.420 C 375.372 269.175,375.606 268.738,375.893 268.449 C 376.385 267.953,377.361 265.257,377.915 262.860 C 378.054 262.259,378.343 261.768,378.558 261.768 C 378.772 261.768,378.947 261.421,378.947 260.997 C 378.947 260.573,379.105 260.128,379.299 260.008 C 379.492 259.889,379.771 258.985,379.919 257.999 C 380.067 257.013,380.334 256.207,380.512 256.207 C 380.691 256.207,381.139 255.003,381.508 253.533 C 381.878 252.062,382.331 250.677,382.515 250.454 C 382.700 250.232,383.247 248.352,383.732 246.276 C 384.216 244.201,384.723 242.413,384.859 242.304 C 385.161 242.059,385.249 241.714,386.027 237.736 C 386.369 235.988,386.765 234.469,386.906 234.359 C 387.192 234.139,388.883 222.484,388.880 220.755 C 388.879 220.154,389.031 219.662,389.218 219.662 C 389.904 219.662,390.665 205.776,390.665 193.247 C 390.665 180.719,389.904 166.832,389.218 166.832 C 389.031 166.832,388.878 166.341,388.879 165.740 C 388.880 164.092,387.212 154.349,386.889 154.121 C 386.734 154.012,386.315 152.333,385.958 150.391 C 385.600 148.449,385.157 146.662,384.972 146.419 C 384.787 146.177,384.214 144.012,383.699 141.609 C 383.184 139.206,382.556 137.029,382.303 136.772 C 382.050 136.515,381.624 135.192,381.356 133.832 C 381.089 132.472,380.632 131.122,380.342 130.831 C 380.052 130.541,379.692 129.582,379.543 128.699 C 379.394 127.817,379.044 126.867,378.766 126.589 C 378.488 126.310,377.854 124.795,377.357 123.220 C 376.860 121.646,376.329 120.357,376.176 120.357 C 376.023 120.357,375.564 119.374,375.156 118.173 C 374.748 116.971,374.284 115.988,374.125 115.988 C 373.967 115.988,373.714 115.601,373.564 115.129 C 373.414 114.656,373.043 113.674,372.739 112.946 C 372.434 112.218,372.203 111.508,372.224 111.367 C 372.245 111.227,372.101 111.002,371.903 110.869 C 371.706 110.735,371.232 109.832,370.849 108.862 C 370.467 107.892,369.924 106.909,369.643 106.678 C 369.361 106.446,368.831 105.478,368.464 104.526 C 368.098 103.575,367.581 102.553,367.315 102.256 C 365.999 100.784,365.644 100.234,364.550 97.973 C 363.901 96.630,363.254 95.442,363.114 95.333 C 362.616 94.946,359.881 90.572,359.881 90.162 C 359.881 89.934,359.651 89.659,359.371 89.551 C 359.090 89.443,358.424 88.555,357.890 87.577 C 357.355 86.599,356.785 85.799,356.622 85.799 C 356.459 85.799,356.036 85.239,355.682 84.553 C 355.327 83.868,354.608 82.909,354.083 82.422 C 353.558 81.936,353.128 81.343,353.128 81.106 C 353.128 80.869,352.891 80.532,352.601 80.357 C 352.310 80.183,351.736 79.459,351.323 78.749 C 350.911 78.039,350.448 77.458,350.294 77.458 C 350.141 77.458,349.610 76.802,349.114 76.000 C 348.619 75.199,347.684 74.037,347.037 73.418 C 346.390 72.800,345.993 72.294,346.154 72.294 C 346.316 72.294,345.628 71.496,344.624 70.521 C 343.621 69.546,342.800 68.623,342.800 68.469 C 342.800 68.120,329.191 54.428,328.839 54.423 C 328.617 54.420,326.421 52.462,323.493 49.659 C 323.034 49.218,322.463 48.858,322.225 48.858 C 321.987 48.858,321.559 48.533,321.274 48.137 C 320.988 47.740,320.487 47.286,320.159 47.128 C 318.587 46.370,317.670 45.706,317.130 44.935 C 316.805 44.471,316.291 44.091,315.988 44.091 C 315.685 44.091,315.204 43.760,314.918 43.356 C 314.633 42.952,313.818 42.321,313.108 41.956 C 312.398 41.590,311.817 41.155,311.817 40.989 C 311.817 40.823,311.236 40.351,310.526 39.940 C 309.816 39.528,308.809 38.775,308.287 38.265 C 307.766 37.756,307.105 37.339,306.818 37.339 C 306.531 37.339,306.153 37.115,305.978 36.842 C 305.594 36.241,303.218 34.955,302.493 34.955 C 302.206 34.955,301.869 34.687,301.743 34.359 C 301.617 34.032,301.334 33.764,301.113 33.764 C 300.891 33.764,299.769 33.175,298.617 32.456 C 297.466 31.736,296.033 30.936,295.432 30.677 C 294.831 30.418,294.340 30.051,294.340 29.863 C 294.340 29.674,293.643 29.311,292.792 29.056 C 291.941 28.801,291.145 28.335,291.025 28.021 C 290.904 27.707,290.089 27.257,289.214 27.021 C 288.339 26.786,287.359 26.329,287.037 26.007 C 286.715 25.685,286.243 25.422,285.988 25.422 C 285.436 25.422,283.072 24.150,282.894 23.756 C 282.825 23.605,282.512 23.579,282.199 23.699 C 281.885 23.820,281.629 23.720,281.629 23.478 C 281.629 23.237,281.405 23.036,281.132 23.034 C 280.859 23.031,279.614 22.511,278.366 21.878 C 277.118 21.245,275.420 20.506,274.593 20.236 C 273.765 19.967,272.999 19.627,272.890 19.481 C 272.661 19.176,268.940 17.999,267.031 17.629 C 266.321 17.491,265.740 17.235,265.740 17.059 C 265.740 16.884,264.737 16.516,263.510 16.241 C 262.284 15.967,261.070 15.531,260.812 15.273 C 260.554 15.015,259.010 14.467,257.381 14.056 C 255.752 13.644,254.363 13.183,254.294 13.031 C 254.225 12.880,253.895 12.861,253.559 12.990 C 253.223 13.119,252.832 13.036,252.690 12.805 C 252.431 12.387,247.029 11.122,245.498 11.122 C 245.052 11.122,244.687 10.982,244.687 10.811 C 244.687 10.491,240.991 9.745,237.140 9.289 C 235.938 9.147,234.768 8.883,234.539 8.704 C 233.763 8.096,219.124 6.758,213.208 6.754 C 211.686 6.753,210.526 6.581,210.526 6.356 C 210.526 6.104,207.547 5.958,202.383 5.958 C 197.219 5.958,194.240 6.104,194.240 6.356 M218.821 38.840 C 218.956 39.052,220.228 39.316,221.648 39.426 C 226.058 39.766,232.562 40.626,232.771 40.895 C 232.880 41.036,235.248 41.578,238.034 42.098 C 240.819 42.619,243.098 43.169,243.098 43.319 C 243.098 43.469,243.858 43.712,244.786 43.858 C 246.777 44.170,248.628 44.736,250.922 45.734 C 251.838 46.132,253.325 46.576,254.225 46.720 C 255.126 46.864,256.094 47.213,256.376 47.495 C 256.659 47.778,257.943 48.311,259.229 48.680 C 260.516 49.049,261.752 49.497,261.976 49.675 C 262.200 49.853,263.272 50.299,264.359 50.667 C 265.446 51.034,266.425 51.469,266.534 51.632 C 266.643 51.796,267.850 52.335,269.215 52.831 C 270.581 53.326,271.698 53.851,271.698 53.997 C 271.698 54.143,272.592 54.584,273.684 54.976 C 274.777 55.369,275.670 55.870,275.670 56.090 C 275.670 56.310,275.948 56.384,276.287 56.254 C 276.626 56.123,276.814 56.162,276.704 56.339 C 276.595 56.515,277.390 56.978,278.471 57.367 C 279.552 57.756,280.437 58.195,280.437 58.342 C 280.437 58.490,281.240 58.963,282.221 59.395 C 283.202 59.826,284.006 60.308,284.008 60.466 C 284.010 60.623,284.906 61.137,285.998 61.607 C 287.090 62.077,287.984 62.598,287.984 62.764 C 287.984 62.931,288.610 63.364,289.374 63.727 C 290.139 64.090,290.765 64.545,290.765 64.739 C 290.765 64.932,291.106 65.199,291.522 65.331 C 291.939 65.463,293.056 66.188,294.005 66.943 C 294.954 67.697,295.947 68.316,296.212 68.318 C 296.478 68.320,296.886 68.679,297.120 69.116 C 297.354 69.553,297.795 69.911,298.100 69.911 C 298.405 69.911,299.037 70.447,299.503 71.102 L 300.352 72.294 202.907 72.282 C 130.215 72.273,105.664 72.156,106.256 71.821 C 106.693 71.573,107.194 71.132,107.368 70.840 C 107.543 70.547,107.935 70.308,108.240 70.308 C 108.544 70.308,109.027 69.995,109.312 69.613 C 109.598 69.230,110.417 68.592,111.133 68.194 C 111.848 67.796,112.902 67.036,113.475 66.506 C 114.047 65.975,114.757 65.541,115.053 65.541 C 115.349 65.541,115.591 65.358,115.591 65.134 C 115.591 64.910,115.993 64.545,116.485 64.323 C 118.019 63.628,119.382 62.773,118.967 62.765 C 118.749 62.761,119.455 62.308,120.537 61.760 C 121.618 61.211,122.601 60.631,122.721 60.470 C 122.841 60.310,123.565 59.854,124.330 59.456 C 125.094 59.059,126.337 58.394,127.090 57.978 C 127.844 57.562,128.916 57.031,129.474 56.798 C 130.031 56.565,131.291 55.936,132.274 55.401 C 133.257 54.865,134.285 54.425,134.558 54.423 C 134.831 54.421,135.055 54.254,135.055 54.053 C 135.055 53.851,135.725 53.476,136.544 53.220 C 138.694 52.547,140.218 51.878,140.218 51.606 C 140.218 51.476,141.202 51.036,142.403 50.628 C 143.605 50.219,144.588 49.758,144.588 49.602 C 144.588 49.446,145.169 49.204,145.879 49.063 C 147.666 48.710,149.453 47.996,150.078 47.385 C 150.367 47.103,150.903 46.869,151.270 46.866 C 152.013 46.860,154.875 45.933,156.703 45.106 C 157.358 44.810,158.967 44.350,160.278 44.084 C 161.589 43.819,162.751 43.483,162.860 43.338 C 163.098 43.023,170.666 41.311,171.821 41.311 C 172.267 41.311,172.801 41.151,173.009 40.955 C 173.216 40.759,176.604 40.280,180.536 39.891 C 184.469 39.502,187.782 39.042,187.900 38.870 C 188.398 38.141,218.357 38.111,218.821 38.840 M311.207 80.735 C 312.362 81.882,313.821 83.293,314.449 83.871 C 316.461 85.722,318.967 88.449,318.967 88.786 C 318.967 88.966,319.906 90.027,321.053 91.142 C 322.200 92.258,323.585 93.783,324.131 94.530 C 324.677 95.277,325.437 96.210,325.819 96.604 C 326.202 96.997,326.425 97.319,326.316 97.319 C 326.104 97.319,326.943 98.340,328.401 99.857 C 328.893 100.368,329.295 100.976,329.295 101.208 C 329.295 101.441,329.697 101.960,330.189 102.362 C 330.680 102.765,331.408 103.676,331.806 104.388 C 332.204 105.099,332.964 106.149,333.494 106.722 C 334.025 107.294,334.459 108.005,334.459 108.300 C 334.459 108.596,334.635 108.838,334.851 108.838 C 335.066 108.838,335.496 109.445,335.807 110.188 C 336.117 110.930,336.620 111.690,336.925 111.876 C 337.230 112.062,337.974 113.198,338.579 114.399 C 340.103 117.428,341.021 119.053,341.600 119.752 C 342.420 120.739,345.163 126.464,345.174 127.210 C 345.179 127.592,345.373 127.905,345.604 127.905 C 345.836 127.905,345.915 128.083,345.780 128.302 C 345.645 128.520,345.695 128.699,345.891 128.699 C 346.088 128.699,346.486 129.459,346.776 130.387 C 347.067 131.316,347.504 132.254,347.747 132.473 C 347.991 132.691,348.631 134.211,349.169 135.849 C 349.708 137.488,350.245 138.918,350.363 139.027 C 350.480 139.136,350.927 140.298,351.354 141.609 C 351.782 142.920,352.233 144.081,352.357 144.191 C 352.629 144.431,353.768 148.223,354.147 150.149 C 354.297 150.914,354.574 151.638,354.762 151.758 C 354.951 151.879,355.416 153.488,355.795 155.333 C 356.175 157.179,356.602 158.779,356.743 158.888 C 356.992 159.080,358.232 166.473,358.592 169.911 C 358.690 170.839,358.907 171.599,359.075 171.599 C 360.809 171.599,360.845 215.737,359.112 216.878 C 358.944 216.990,358.592 218.600,358.331 220.457 C 357.562 225.925,357.002 228.983,356.729 229.196 C 356.589 229.305,356.173 230.990,355.804 232.940 C 355.435 234.890,354.985 236.588,354.804 236.713 C 354.623 236.839,354.086 238.537,353.611 240.488 C 353.136 242.439,352.592 244.137,352.402 244.262 C 352.213 244.386,351.735 245.829,351.341 247.468 C 350.946 249.106,350.506 250.536,350.361 250.645 C 350.217 250.755,349.674 252.006,349.156 253.426 C 348.637 254.846,348.096 256.097,347.953 256.207 C 347.810 256.316,347.361 257.299,346.956 258.391 C 346.551 259.484,346.006 260.509,345.747 260.670 C 345.487 260.830,345.031 261.791,344.733 262.805 C 344.435 263.819,343.967 264.734,343.694 264.839 C 343.421 264.944,343.198 265.358,343.198 265.759 C 343.198 266.160,343.019 266.598,342.800 266.733 C 342.582 266.868,342.403 267.331,342.403 267.762 C 342.403 268.193,342.173 268.634,341.892 268.741 C 341.611 268.849,341.030 269.736,340.601 270.711 C 340.172 271.687,339.703 272.487,339.559 272.489 C 339.414 272.491,338.907 273.297,338.431 274.280 C 337.955 275.263,337.435 276.068,337.274 276.068 C 337.114 276.068,336.584 276.827,336.096 277.756 C 335.609 278.684,334.864 279.980,334.442 280.636 C 334.019 281.291,333.551 282.082,333.401 282.393 C 333.128 282.960,332.731 283.470,331.311 285.074 C 330.891 285.549,330.327 286.354,330.058 286.862 C 329.789 287.370,328.971 288.519,328.240 289.415 C 327.509 290.312,326.912 291.230,326.912 291.455 C 326.912 291.680,326.465 292.158,325.919 292.516 C 325.372 292.873,324.926 293.359,324.926 293.594 C 324.926 293.829,324.434 294.523,323.833 295.136 C 323.232 295.749,321.936 297.169,320.953 298.292 C 317.535 302.196,316.277 303.476,315.858 303.476 C 315.626 303.476,315.202 303.967,314.916 304.568 C 314.630 305.169,313.994 305.837,313.504 306.052 C 313.013 306.268,312.612 306.587,312.612 306.760 C 312.612 306.933,311.876 307.740,310.976 308.553 C 308.738 310.574,305.116 313.971,303.674 315.401 C 303.018 316.052,302.340 316.584,302.165 316.584 C 301.991 316.584,301.435 317.031,300.929 317.577 C 300.422 318.123,299.814 318.570,299.577 318.570 C 299.340 318.570,299.003 318.793,298.828 319.067 C 298.456 319.648,297.215 320.481,296.226 320.813 C 295.844 320.941,295.531 321.200,295.531 321.389 C 295.531 321.577,294.816 322.096,293.942 322.542 C 293.069 322.988,292.351 323.483,292.347 323.643 C 292.344 323.802,291.450 324.370,290.361 324.904 C 289.272 325.439,288.381 326.011,288.381 326.177 C 288.381 326.342,287.756 326.774,286.991 327.137 C 286.226 327.500,285.601 327.923,285.601 328.078 C 285.601 328.232,284.707 328.763,283.615 329.256 C 282.522 329.750,281.629 330.318,281.629 330.519 C 281.629 330.720,281.394 330.884,281.108 330.884 C 280.821 330.884,280.215 331.231,279.760 331.654 C 279.305 332.078,278.824 332.316,278.692 332.184 C 278.559 332.051,278.451 332.132,278.451 332.363 C 278.451 332.595,277.692 333.087,276.764 333.459 C 275.836 333.830,274.987 334.252,274.877 334.396 C 274.510 334.876,271.111 336.447,270.440 336.446 C 270.076 336.445,269.719 336.597,269.646 336.782 C 269.518 337.108,264.500 339.623,263.978 339.623 C 263.837 339.623,262.611 340.140,261.255 340.772 C 259.898 341.404,258.029 342.147,257.100 342.424 C 256.172 342.700,255.412 343.077,255.412 343.260 C 255.412 343.444,255.083 343.595,254.680 343.595 C 254.277 343.595,252.909 343.952,251.639 344.389 C 250.369 344.826,248.911 345.184,248.399 345.184 C 247.887 345.184,247.468 345.326,247.468 345.499 C 247.468 345.672,246.351 346.050,244.985 346.338 C 243.620 346.626,242.100 346.951,241.609 347.059 C 241.117 347.167,240.715 347.391,240.715 347.557 C 240.715 347.722,238.704 348.177,236.246 348.569 C 233.788 348.961,231.688 349.407,231.579 349.560 C 231.309 349.939,221.294 351.116,215.775 351.417 C 213.309 351.552,211.198 351.813,211.084 351.998 C 210.781 352.488,195.035 352.428,195.035 351.936 C 195.035 351.714,193.944 351.540,192.552 351.542 C 189.580 351.545,176.648 349.969,176.365 349.570 C 176.256 349.415,174.201 348.972,171.797 348.585 C 169.394 348.197,167.249 347.738,167.031 347.563 C 166.812 347.389,165.114 346.926,163.257 346.535 C 161.400 346.143,159.791 345.705,159.682 345.561 C 159.573 345.417,157.875 344.882,155.909 344.372 C 153.942 343.862,152.244 343.323,152.135 343.176 C 152.026 343.028,151.490 342.788,150.943 342.641 C 147.875 341.819,146.711 341.420,146.177 341.006 C 145.849 340.753,144.553 340.232,143.297 339.848 C 142.041 339.465,141.013 339.031,141.013 338.884 C 141.013 338.738,140.119 338.300,139.027 337.912 C 137.934 337.524,137.041 337.035,137.041 336.826 C 137.041 336.616,136.796 336.445,136.498 336.445 C 135.733 336.445,131.731 334.772,131.422 334.323 C 131.281 334.118,130.387 333.561,129.436 333.085 C 126.825 331.780,125.022 330.740,124.429 330.199 C 124.135 329.931,123.239 329.401,122.438 329.020 C 121.636 328.640,120.661 328.009,120.271 327.620 C 119.882 327.230,119.304 326.912,118.987 326.912 C 118.670 326.912,118.268 326.688,118.093 326.414 C 117.919 326.141,117.313 325.679,116.747 325.388 C 116.181 325.097,115.108 324.338,114.363 323.702 C 113.618 323.065,112.792 322.544,112.526 322.543 C 112.261 322.543,111.853 322.185,111.619 321.748 C 111.385 321.311,110.945 320.953,110.640 320.953 C 110.336 320.953,109.736 320.506,109.306 319.960 C 108.877 319.414,108.340 318.967,108.115 318.967 C 107.889 318.967,107.353 318.520,106.923 317.974 C 106.493 317.428,105.944 316.981,105.703 316.981 C 105.461 316.981,105.263 316.805,105.263 316.589 C 105.263 316.340,110.519 316.159,119.662 316.092 L 134.062 315.988 134.162 246.773 L 134.262 177.557 221.046 177.557 L 307.830 177.557 308.047 176.663 C 308.167 176.172,308.215 168.083,308.154 158.689 L 308.044 141.609 203.394 141.609 L 98.745 141.609 98.469 142.602 C 98.317 143.148,98.175 181.004,98.153 226.727 L 98.113 309.859 97.219 309.397 C 96.359 308.952,89.332 301.862,86.718 298.801 C 86.021 297.986,84.814 296.582,84.036 295.682 C 83.258 294.781,82.622 293.913,82.622 293.753 C 82.622 293.592,82.175 293.109,81.629 292.680 C 81.082 292.250,80.636 291.703,80.636 291.464 C 80.636 291.225,80.323 290.692,79.940 290.279 C 79.558 289.866,78.884 289.136,78.443 288.657 C 78.001 288.178,77.286 287.071,76.854 286.197 C 76.421 285.323,75.755 284.374,75.372 284.089 C 74.990 283.803,74.677 283.321,74.677 283.016 C 74.677 282.712,74.439 282.320,74.148 282.145 C 73.856 281.970,73.200 280.979,72.688 279.943 C 72.177 278.907,71.667 278.150,71.556 278.262 C 71.444 278.374,70.941 277.568,70.437 276.472 C 69.933 275.376,69.380 274.479,69.208 274.479 C 69.035 274.479,68.547 273.585,68.123 272.493 C 67.699 271.400,67.203 270.506,67.020 270.506 C 66.838 270.506,66.316 269.664,65.860 268.635 C 65.405 267.605,64.796 266.527,64.508 266.239 C 64.220 265.950,63.865 265.080,63.719 264.305 C 63.574 263.530,63.209 262.802,62.909 262.686 C 62.609 262.571,62.363 262.183,62.362 261.824 C 62.361 261.465,62.004 260.587,61.568 259.871 C 61.131 259.156,60.775 258.307,60.775 257.984 C 60.775 257.662,60.624 257.398,60.440 257.398 C 60.256 257.398,59.771 256.281,59.362 254.916 C 58.953 253.550,58.422 252.230,58.182 251.983 C 57.942 251.735,57.499 250.484,57.198 249.202 C 56.897 247.920,56.527 246.783,56.376 246.673 C 55.981 246.388,54.816 242.816,54.816 241.893 C 54.816 241.463,54.618 241.112,54.376 241.112 C 54.105 241.112,54.031 240.731,54.185 240.119 C 54.322 239.573,54.264 239.126,54.057 239.126 C 53.849 239.126,53.373 237.741,52.999 236.048 C 52.626 234.355,52.195 232.880,52.042 232.771 C 51.889 232.661,51.345 229.980,50.833 226.812 C 50.322 223.644,49.768 220.959,49.603 220.846 C 49.287 220.627,48.609 213.951,48.193 206.951 C 48.056 204.657,47.762 202.662,47.539 202.516 C 46.968 202.145,47.064 185.371,47.638 185.180 C 47.880 185.099,48.064 183.970,48.064 182.564 C 48.064 179.178,49.239 167.094,49.594 166.840 C 49.751 166.726,50.294 164.042,50.800 160.874 C 51.305 157.706,51.833 154.935,51.973 154.717 C 52.467 153.947,53.208 151.520,53.460 149.851 C 53.600 148.923,53.873 148.163,54.067 148.163 C 54.261 148.163,54.390 148.029,54.355 147.865 C 54.320 147.701,54.498 147.064,54.752 146.449 C 55.006 145.834,55.214 145.131,55.214 144.888 C 55.214 144.323,56.133 141.672,56.420 141.410 C 56.539 141.301,56.881 140.407,57.180 139.424 C 57.478 138.441,57.934 137.279,58.193 136.842 C 58.451 136.405,58.984 135.020,59.376 133.764 C 59.768 132.507,60.222 131.480,60.386 131.480 C 60.549 131.480,61.075 130.452,61.554 129.196 C 62.034 127.939,62.592 126.643,62.795 126.316 C 62.997 125.988,63.475 125.094,63.855 124.330 C 64.236 123.565,64.772 122.703,65.045 122.415 C 65.318 122.126,65.541 121.662,65.541 121.385 C 65.541 121.107,65.982 120.092,66.521 119.129 C 67.060 118.166,67.766 116.797,68.090 116.087 C 68.413 115.377,68.877 114.796,69.119 114.796 C 69.362 114.796,69.457 114.630,69.332 114.427 C 69.206 114.223,69.288 113.943,69.513 113.804 C 69.738 113.664,70.179 112.937,70.492 112.187 C 70.805 111.438,71.230 110.824,71.436 110.824 C 71.642 110.824,71.912 110.418,72.037 109.923 C 72.161 109.427,72.631 108.626,73.081 108.143 C 73.531 107.660,73.902 107.127,73.906 106.959 C 73.913 106.628,78.826 99.979,79.738 99.068 C 80.044 98.761,80.193 98.510,80.068 98.510 C 79.943 98.510,80.115 98.198,80.449 97.815 C 82.630 95.320,83.416 94.324,83.416 94.052 C 83.416 93.883,83.684 93.744,84.012 93.744 C 84.340 93.744,84.608 93.492,84.608 93.183 C 84.608 92.875,85.144 92.172,85.799 91.620 C 86.455 91.069,86.991 90.455,86.991 90.256 C 86.991 90.057,89.449 87.423,92.453 84.403 L 97.915 78.913 98.017 101.621 L 98.120 124.330 116.389 124.330 L 134.657 124.330 134.657 115.789 L 134.657 107.249 221.450 107.249 L 308.242 107.249 308.242 92.949 C 308.242 76.938,308.075 77.627,311.207 80.735 M168.293 194.104 C 168.145 194.252,168.024 221.781,168.024 255.280 L 168.024 316.187 185.899 316.187 L 203.774 316.187 203.774 281.630 L 203.774 247.073 255.909 246.973 L 308.044 246.872 308.044 228.997 L 308.044 211.122 255.917 211.021 L 203.789 210.921 203.682 202.481 L 203.575 194.042 186.068 193.938 C 176.440 193.881,168.441 193.956,168.293 194.104 " stroke="none" fill="#24a4fc" fill-rule="evenodd"></path><path id="path1" d="" stroke="none" fill="#28a4fc" fill-rule="evenodd"></path><path id="path2" d="" stroke="none" fill="#28a4fc" fill-rule="evenodd"></path><path id="path3" d="" stroke="none" fill="#28a4fc" fill-rule="evenodd"></path><path id="path4" d="" stroke="none" fill="#28a4fc" fill-rule="evenodd"></path></g></svg>